<svg width="658" height="191" viewBox="0 0 658 191" fill="none" xmlns="http://www.w3.org/2000/svg">
<path d="M253.984 0.001297C263.935 0.001297 272.502 5.35133 279.647 15.8907C286.776 26.2758 291.217 39.6783 293.018 56.0243L293.174 57.441H279.778L279.542 56.6088C277.539 49.5315 274.236 43.873 269.629 39.5955L269.613 39.5796C265.092 35.1927 259.895 32.999 253.984 32.999C246.297 32.999 239.908 36.6214 234.752 43.9174L234.751 43.9193C229.662 51.0918 227.094 60.1059 227.094 71.0547C227.094 81.996 229.658 91.076 234.746 98.38C239.9 105.548 246.291 109.111 253.984 109.111C259.9 109.111 265.098 106.978 269.618 102.72C274.232 98.3098 277.539 92.5811 279.542 85.5012L279.778 84.669H293.174L293.018 86.0857C291.217 102.435 286.775 115.901 279.647 126.415L279.643 126.421C272.496 136.829 263.93 142.109 253.984 142.109C242.485 142.109 232.905 135.196 225.274 121.632L225.272 121.628L225.269 121.623C217.723 107.947 213.98 91.0661 213.98 71.0547C213.98 51.0438 217.722 34.2253 225.272 20.6772C232.9 6.98416 242.481 0.0013526 253.984 0.001297Z" fill="black"/>
<path d="M253.984 0.001297C263.935 0.001297 272.502 5.35133 279.647 15.8907C286.776 26.2758 291.217 39.6783 293.018 56.0243L293.174 57.441H279.778L279.542 56.6088C277.539 49.5315 274.236 43.873 269.629 39.5955L269.613 39.5796C265.092 35.1927 259.895 32.999 253.984 32.999C246.297 32.999 239.908 36.6214 234.752 43.9174L234.751 43.9193C229.662 51.0918 227.094 60.1059 227.094 71.0547C227.094 81.996 229.658 91.076 234.746 98.38C239.9 105.548 246.291 109.111 253.984 109.111C259.9 109.111 265.098 106.978 269.618 102.72C274.232 98.3098 277.539 92.5811 279.542 85.5012L279.778 84.669H293.174L293.018 86.0857C291.217 102.435 286.775 115.901 279.647 126.415L279.643 126.421C272.496 136.829 263.93 142.109 253.984 142.109C242.485 142.109 232.905 135.196 225.274 121.632L225.272 121.628L225.269 121.623C217.723 107.947 213.98 91.0661 213.98 71.0547C213.98 51.0438 217.722 34.2253 225.272 20.6772C232.9 6.98416 242.481 0.0013526 253.984 0.001297Z" fill="black" fill-opacity="0.2"/>
<path d="M38.0406 67.8529H41.5428L60.2436 2.34766H80.3304V139.762H67.7502V53.533C67.7502 51.6957 66.5547 50.2059 65.0804 50.2059C63.9351 50.206 62.9175 51.1169 62.5514 52.4694L46.0664 113.365H34.1555L17.7746 52.4725C17.4103 51.1185 16.3924 50.2059 15.2465 50.2059C13.774 50.2059 12.5803 51.6937 12.5802 53.5288V139.762H0V2.34766H19.4468L38.0406 67.8529Z" fill="black"/>
<path d="M38.0406 67.8529H41.5428L60.2436 2.34766H80.3304V139.762H67.7502V53.533C67.7502 51.6957 66.5547 50.2059 65.0804 50.2059C63.9351 50.206 62.9175 51.1169 62.5514 52.4694L46.0664 113.365H34.1555L17.7746 52.4725C17.4103 51.1185 16.3924 50.2059 15.2465 50.2059C13.774 50.2059 12.5803 51.6937 12.5802 53.5288V139.762H0V2.34766H19.4468L38.0406 67.8529Z" fill="black" fill-opacity="0.2"/>
<path fill-rule="evenodd" clip-rule="evenodd" d="M162.93 139.762H149.434L144.411 116.102H104.485L99.3561 139.762H84.7935L113.417 2.34766H134.415L162.93 139.762ZM124.45 37.8871C122.571 37.8872 120.927 39.4606 120.441 41.7227L111.434 83.6912H137.467L128.459 41.7227C127.974 39.4605 126.329 37.8871 124.45 37.8871Z" fill="black"/>
<path fill-rule="evenodd" clip-rule="evenodd" d="M162.93 139.762H149.434L144.411 116.102H104.485L99.3561 139.762H84.7935L113.417 2.34766H134.415L162.93 139.762ZM124.45 37.8871C122.571 37.8872 120.927 39.4606 120.441 41.7227L111.434 83.6912H137.467L128.459 41.7227C127.974 39.4605 126.329 37.8871 124.45 37.8871Z" fill="black" fill-opacity="0.2"/>
<path d="M215.094 34.7584H190.41V139.762H177.83V34.7584H153.144V2.34766H215.094V34.7584Z" fill="black"/>
<path d="M215.094 34.7584H190.41V139.762H177.83V34.7584H153.144V2.34766H215.094V34.7584Z" fill="black" fill-opacity="0.2"/>
<path d="M312.505 53.5787H351.967V2.34766H364.654V139.762H351.967V87.7489H312.505V139.762H299.925V2.34766H312.505V53.5787Z" fill="black"/>
<path d="M312.505 53.5787H351.967V2.34766H364.654V139.762H351.967V87.7489H312.505V139.762H299.925V2.34766H312.505V53.5787Z" fill="black" fill-opacity="0.2"/>
<path fill-rule="evenodd" clip-rule="evenodd" d="M447.202 139.762H433.705L428.682 116.102H388.757L383.628 139.762H369.066L397.689 2.34766H418.686L447.202 139.762ZM408.722 37.8871C406.843 37.8872 405.198 39.4606 404.713 41.7227L395.706 83.6912H421.738L412.731 41.7227C412.245 39.4605 410.601 37.8871 408.722 37.8871Z" fill="black"/>
<path fill-rule="evenodd" clip-rule="evenodd" d="M447.202 139.762H433.705L428.682 116.102H388.757L383.628 139.762H369.066L397.689 2.34766H418.686L447.202 139.762ZM408.722 37.8871C406.843 37.8872 405.198 39.4606 404.713 41.7227L395.706 83.6912H421.738L412.731 41.7227C412.245 39.4605 410.601 37.8871 408.722 37.8871Z" fill="black" fill-opacity="0.2"/>
<path d="M464.294 107.352H502.123V139.762H451.714V2.34766H464.294V107.352Z" fill="black"/>
<path d="M464.294 107.352H502.123V139.762H451.714V2.34766H464.294V107.352Z" fill="black" fill-opacity="0.2"/>
<path d="M521.039 139.762H508.459V2.34766H521.039V139.762Z" fill="black"/>
<path d="M521.039 139.762H508.459V2.34766H521.039V139.762Z" fill="black" fill-opacity="0.2"/>
<path d="M589.585 34.7584H564.9V139.762H552.32V34.7584H527.634V2.34766H589.585V34.7584Z" fill="black"/>
<path d="M589.585 34.7584H564.9V139.762H552.32V34.7584H527.634V2.34766H589.585V34.7584Z" fill="black" fill-opacity="0.2"/>
<path fill-rule="evenodd" clip-rule="evenodd" d="M657.902 139.762H644.405L639.383 116.102H599.457L594.327 139.762H579.765L608.389 2.34766H629.387L657.902 139.762ZM619.422 37.8871C617.543 37.8871 615.899 39.4606 615.413 41.7227L606.406 83.6912H632.438L623.431 41.7227C622.946 39.4605 621.301 37.8871 619.422 37.8871Z" fill="black"/>
<path fill-rule="evenodd" clip-rule="evenodd" d="M657.902 139.762H644.405L639.383 116.102H599.457L594.327 139.762H579.765L608.389 2.34766H629.387L657.902 139.762ZM619.422 37.8871C617.543 37.8871 615.899 39.4606 615.413 41.7227L606.406 83.6912H632.438L623.431 41.7227C622.946 39.4605 621.301 37.8871 619.422 37.8871Z" fill="black" fill-opacity="0.2"/>
<path d="M193.105 154.993C193.105 174.482 177.307 190.246 157.784 190.246C138.262 190.246 122.464 174.482 122.464 154.993C122.464 135.503 138.414 119.731 157.784 119.731C177.155 119.731 193.105 135.278 193.105 154.993Z" fill="#AEFD4A"/>
<path d="M183.033 138.475C179.381 153.276 168.504 161.314 161.126 166.291C164.707 169.937 166.344 171.868 169.844 176.036L163.888 181.092C159.119 174.473 150.474 164.952 141.234 158.557L146.075 154.022C151.068 157.371 152.93 158.854 156.43 161.907C159.786 159.679 168.126 154.166 172.822 144.725H133.038V138.475H183.033Z" fill="#AEFD4A"/>
<path d="M161.126 166.306C164.707 169.953 166.344 171.884 169.844 176.051L163.888 181.108C159.119 174.488 150.474 164.968 141.234 158.573L146.075 154.037C151.068 157.387 152.93 158.869 156.43 161.923C159.786 159.695 168.126 154.181 172.822 144.741H133.038V138.49H183.033C179.381 153.292 168.504 161.33 161.126 166.306Z" fill="#AEFD4A"/>
<path d="M161.126 166.306C164.707 169.953 166.344 171.884 169.844 176.051L163.888 181.108C159.119 174.488 150.474 164.968 141.234 158.573L146.075 154.037C151.068 157.387 152.93 158.869 156.43 161.923C159.786 159.695 168.126 154.181 172.822 144.741H133.038V138.49H183.033C179.381 153.292 168.504 161.33 161.126 166.306Z" fill="black"/>
<path d="M161.126 166.306C164.707 169.953 166.344 171.884 169.844 176.051L163.888 181.108C159.119 174.488 150.474 164.968 141.234 158.573L146.075 154.037C151.068 157.387 152.93 158.869 156.43 161.923C159.786 159.695 168.126 154.181 172.822 144.741H133.038V138.49H183.033C179.381 153.292 168.504 161.33 161.126 166.306Z" fill="black" fill-opacity="0.2"/>
<path d="M261.534 154.99C261.534 174.48 245.744 190.251 226.221 190.251C206.698 190.251 190.9 174.48 190.9 154.99C190.9 135.5 206.843 119.729 226.221 119.729C245.599 119.729 261.534 135.276 261.534 154.99Z" fill="#AEFD4A"/>
<path d="M209.272 156.594C208.229 150.824 206.487 145.599 203.91 140.246L210.46 138.298C213.736 144.974 215.132 149.013 216.457 154.855L209.28 156.594H209.272ZM209.337 174.681C231.492 170.578 239.094 160.633 243.413 136.768L250.943 138.09C247.25 154.991 242.996 174.193 212.411 181.085L209.345 174.681H209.337ZM224.179 154.022C223.064 146.232 221.185 141.432 219.58 137.673L226.202 136.006C229.341 142.057 230.593 148.107 231.147 152.283L224.179 154.022Z" fill="black"/>
<path d="M209.272 156.594C208.229 150.824 206.487 145.599 203.91 140.246L210.46 138.298C213.736 144.974 215.132 149.013 216.457 154.855L209.28 156.594H209.272ZM209.337 174.681C231.492 170.578 239.094 160.633 243.413 136.768L250.943 138.09C247.25 154.991 242.996 174.193 212.411 181.085L209.345 174.681H209.337ZM224.179 154.022C223.064 146.232 221.185 141.432 219.58 137.673L226.202 136.006C229.341 142.057 230.593 148.107 231.147 152.283L224.179 154.022Z" fill="black" fill-opacity="0.2"/>
<path d="M330.028 154.993C330.028 174.482 314.23 190.246 294.707 190.246C275.185 190.246 259.387 174.482 259.387 154.993C259.387 135.503 275.337 119.732 294.707 119.732C314.077 119.732 330.028 135.278 330.028 154.993Z" fill="#AEFD4A"/>
<path d="M320.117 150.083V156.261H301.863C301.863 165.333 298.652 176.12 277.275 180.215L274.216 174.413C285.84 172.706 294.71 167.946 294.927 158.722C294.927 157.311 295.007 156.79 295.08 156.269H271.904V150.091H295.08V142.277C289.565 142.798 282.782 143.463 277.275 143.463H275.557L274.216 137.589C279.129 137.589 296.348 137.589 313.037 132.083L316.617 138.262C312.595 139.528 310.581 140.121 301.863 141.46V150.091H320.117V150.083Z" fill="#AEFD4A"/>
<path d="M320.117 150.083V156.261H301.863C301.863 165.333 298.652 176.12 277.275 180.215L274.216 174.413C285.84 172.706 294.71 167.946 294.927 158.722C294.927 157.311 295.007 156.79 295.08 156.269H271.904V150.091H295.08V142.277C289.565 142.798 282.782 143.463 277.275 143.463H275.557L274.216 137.589C279.129 137.589 296.348 137.589 313.037 132.083L316.617 138.262C312.595 139.528 310.581 140.121 301.863 141.46V150.091H320.117V150.083Z" fill="#AEFD4A"/>
<path d="M320.117 150.083V156.261H301.863C301.863 165.333 298.652 176.12 277.275 180.215L274.216 174.413C285.84 172.706 294.71 167.946 294.927 158.722C294.927 157.311 295.007 156.79 295.08 156.269H271.904V150.091H295.08V142.277C289.565 142.798 282.782 143.463 277.275 143.463H275.557L274.216 137.589C279.129 137.589 296.348 137.589 313.037 132.083L316.617 138.262C312.595 139.528 310.581 140.121 301.863 141.46V150.091H320.117V150.083Z" fill="black"/>
<path d="M320.117 150.083V156.261H301.863C301.863 165.333 298.652 176.12 277.275 180.215L274.216 174.413C285.84 172.706 294.71 167.946 294.927 158.722C294.927 157.311 295.007 156.79 295.08 156.269H271.904V150.091H295.08V142.277C289.565 142.798 282.782 143.463 277.275 143.463H275.557L274.216 137.589C279.129 137.589 296.348 137.589 313.037 132.083L316.617 138.262C312.595 139.528 310.581 140.121 301.863 141.46V150.091H320.117V150.083Z" fill="black" fill-opacity="0.2"/>
<path d="M398.457 154.99C398.457 174.48 382.659 190.251 363.136 190.251C343.614 190.251 327.824 174.48 327.824 154.99C327.824 135.5 343.766 119.729 363.136 119.729C382.506 119.729 398.457 135.276 398.457 154.99Z" fill="#AEFD4A"/>
<path d="M384.16 145.836C382.667 148.737 377.899 159.973 377.08 162.425L371.421 159.676C374.174 155.958 377.008 148.369 378.276 144.803L362.029 149.114L365.007 162.281C366.123 167.338 368.282 174.63 369.703 179.238L362.92 180.729C361.948 175.151 360.905 169.718 359.492 163.395L356.658 150.525C347.266 153.201 343.542 154.315 340.563 155.581L337.882 149.106C342.426 148.657 350.18 147.022 354.347 145.981L355.543 145.684C353.383 136.612 353.158 135.643 351.89 131.924L357.855 131.251C359.123 131.099 360.166 131.099 360.166 132.069C360.166 132.814 359.645 133.182 358.898 133.703C359.572 137.35 359.789 138.536 360.985 144.418L368.732 142.631C377.602 140.619 380.203 139.433 381.624 137.574L387.733 141.517C386.167 142.559 385.645 142.855 384.152 145.828L384.16 145.836Z" fill="black"/>
<path d="M384.16 145.836C382.667 148.737 377.899 159.973 377.08 162.425L371.421 159.676C374.174 155.958 377.008 148.369 378.276 144.803L362.029 149.114L365.007 162.281C366.123 167.338 368.282 174.63 369.703 179.238L362.92 180.729C361.948 175.151 360.905 169.718 359.492 163.395L356.658 150.525C347.266 153.201 343.542 154.315 340.563 155.581L337.882 149.106C342.426 148.657 350.18 147.022 354.347 145.981L355.543 145.684C353.383 136.612 353.158 135.643 351.89 131.924L357.855 131.251C359.123 131.099 360.166 131.099 360.166 132.069C360.166 132.814 359.645 133.182 358.898 133.703C359.572 137.35 359.789 138.536 360.985 144.418L368.732 142.631C377.602 140.619 380.203 139.433 381.624 137.574L387.733 141.517C386.167 142.559 385.645 142.855 384.152 145.828L384.16 145.836Z" fill="black" fill-opacity="0.2"/>
<path d="M466.894 154.993C466.894 174.482 451.104 190.246 431.581 190.246C412.059 190.246 396.261 174.482 396.261 154.993C396.261 135.503 412.203 119.732 431.581 119.732C450.96 119.732 466.894 135.278 466.894 154.993Z" fill="#AEFD4A"/>
<path d="M421.61 132.898H414.755V163.623H421.61V132.898Z" fill="#AEFD4A"/>
<path d="M449.773 131.847V153.268C449.773 176.027 435.99 178.335 419.815 180.05L417.583 173.575C431.591 172.613 442.837 170.826 442.837 156.249V131.847H449.773Z" fill="#AEFD4A"/>
<path d="M449.773 131.847V153.268C449.773 176.027 435.99 178.335 419.815 180.05L417.583 173.575C431.591 172.613 442.837 170.826 442.837 156.249V131.847H449.773Z" fill="#AEFD4A"/>
<path d="M421.61 132.898H414.755V163.623H421.61V132.898Z" fill="#AEFD4A"/>
<path d="M421.61 132.898H414.755V163.623H421.61V132.898Z" fill="#AEFD4A"/>
<path d="M442.837 131.847H449.773V153.268C449.773 176.027 435.99 178.335 419.815 180.05L417.583 173.575C431.591 172.613 442.837 170.826 442.837 156.249V131.847Z" fill="#AEFD4A"/>
<path d="M421.61 132.898H414.755V163.623H421.61V132.898Z" fill="#AEFD4A"/>
<path d="M449.773 131.847V153.268C449.773 176.027 435.99 178.335 419.815 180.05L417.583 173.575C431.591 172.613 442.837 170.826 442.837 156.249V131.847H449.773Z" fill="#AEFD4A"/>
<path d="M449.773 131.847V153.268C449.773 176.027 435.99 178.335 419.815 180.05L417.583 173.575C431.591 172.613 442.837 170.826 442.837 156.249V131.847H449.773Z" fill="#AEFD4A"/>
<path d="M421.61 132.898H414.755V163.623H421.61V132.898Z" fill="#AEFD4A"/>
<path d="M421.61 132.898H414.755V163.623H421.61V132.898Z" fill="#AEFD4A"/>
<path d="M449.773 131.847V153.268C449.773 176.027 435.99 178.335 419.815 180.05L417.583 173.575C431.591 172.613 442.837 170.826 442.837 156.249V131.847H449.773Z" fill="#AEFD4A"/>
<path d="M421.61 132.898H414.755V163.623H421.61V132.898Z" fill="black"/>
<path d="M421.61 132.898H414.755V163.623H421.61V132.898Z" fill="black" fill-opacity="0.2"/>
<path d="M449.773 131.847V153.268C449.773 176.027 435.99 178.335 419.815 180.05L417.583 173.575C431.591 172.613 442.837 170.826 442.837 156.249V131.847H449.773Z" fill="black"/>
<path d="M449.773 131.847V153.268C449.773 176.027 435.99 178.335 419.815 180.05L417.583 173.575C431.591 172.613 442.837 170.826 442.837 156.249V131.847H449.773Z" fill="black" fill-opacity="0.2"/>
<path d="M535.361 154.993C535.361 174.482 519.563 190.246 500.04 190.246C480.517 190.246 464.719 174.482 464.719 154.993C464.719 135.503 480.67 119.732 500.04 119.732C519.41 119.732 535.361 135.278 535.361 154.993Z" fill="#AEFD4A"/>
<path d="M523.732 137.141C522.023 147.255 517.029 171.801 484.165 179.543L480.368 173.668C485.361 172.771 493.854 171.36 504.137 162.433C498.767 157.745 493.477 155.221 491.245 154.179L495.941 149.491C498.623 150.685 502.941 152.544 508.833 157.376C513.682 151.125 514.798 145.989 515.32 143.312H496.166C490.579 151.125 485.136 154.7 481.34 156.927L476.868 151.871C484.39 148.072 490.948 142.494 495.717 129.849L502.941 131.259C501.898 133.487 501.601 134.088 500.035 137.133H523.732V137.141Z" fill="#AEFD4A"/>
<path d="M523.732 137.141C522.023 147.255 517.029 171.801 484.165 179.543L480.368 173.668C485.361 172.771 493.854 171.36 504.137 162.433C498.767 157.745 493.477 155.221 491.245 154.179L495.941 149.491C498.623 150.685 502.941 152.544 508.833 157.376C513.682 151.125 514.798 145.989 515.32 143.312H496.166C490.579 151.125 485.136 154.7 481.34 156.927L476.868 151.871C484.39 148.072 490.948 142.494 495.717 129.849L502.941 131.259C501.898 133.487 501.601 134.088 500.035 137.133H523.732V137.141Z" fill="#AEFD4A"/>
<path d="M523.732 137.141C522.023 147.255 517.029 171.801 484.165 179.543L480.368 173.668C485.361 172.771 493.854 171.36 504.137 162.433C498.767 157.745 493.477 155.221 491.245 154.179L495.941 149.491C498.623 150.685 502.941 152.544 508.833 157.376C513.682 151.125 514.798 145.989 515.32 143.312H496.166C490.579 151.125 485.136 154.7 481.34 156.927L476.868 151.871C484.39 148.072 490.948 142.494 495.717 129.849L502.941 131.259C501.898 133.487 501.601 134.088 500.035 137.133H523.732V137.141Z" fill="black"/>
<path d="M523.732 137.141C522.023 147.255 517.029 171.801 484.165 179.543L480.368 173.668C485.361 172.771 493.854 171.36 504.137 162.433C498.767 157.745 493.477 155.221 491.245 154.179L495.941 149.491C498.623 150.685 502.941 152.544 508.833 157.376C513.682 151.125 514.798 145.989 515.32 143.312H496.166C490.579 151.125 485.136 154.7 481.34 156.927L476.868 151.871C484.39 148.072 490.948 142.494 495.717 129.849L502.941 131.259C501.898 133.487 501.601 134.088 500.035 137.133H523.732V137.141Z" fill="black" fill-opacity="0.2"/>
</svg>
